# xmcd
#
# Track frame offsets:
#	150
#	17775
#	31500
#	49500
#	64950
#	77625
#	92625
#	111600
#	129300
#	146175
#	162300
#	179925
#	193650
#	211650
#	227100
#	239775
#	254775
#	273750
#	291450
#	308325
#	324450
#
# Disc length: 4564 seconds
#
# Revision: 2
# Processed by: cddbd v1.5.1PL2 Copyright (c) Steve Scherf et al.
# Submitted via: audiograbber 1.83.01
#
DISCID=3a11d215
DTITLE=Country Hits Today - Cht9904
DYEAR=1900
DGENRE=Karaoke
TTITLE0=Trisha Yearwood And Garth Brooks - Wild As The Wind (Male Solo)
TTITLE1=Vince Gill - Don't Come Crying To Me
TTITLE2=Faith Hill - Love Ain't Like That
TTITLE3=George Strait - Meanwhile
TTITLE4=Deana Carter - You Still Shake Me
TTITLE5=Tracy Byrd - When Mama Ain't Happy
TTITLE6=Martina Mcbride - Whatever You Say
TTITLE7=Mark Wills - Wish You Were Here
TTITLE8=Ty Herndon - Hands Of A Working Man
TTITLE9=Sawyer Brown - Drive Me Wild
TTITLE10=Trisha Yearwood And Garth Brooks - Wild As The Wind (Vocal)
TTITLE11=Vince Gill - Don't Come Crying To Me (Vocal)
TTITLE12=Faith Hill - Love Ain't Like That (Vocal)
TTITLE13=George Strait - Meanwhile (Vocal)
TTITLE14=Deana Carter - You Still Shake Me (Vocal)
TTITLE15=Tracy Byrd - When Mama Ain't Happy (Vocal)
TTITLE16=Martina Mcbride - Whatever You Say (Vocal)
TTITLE17=Mark Wills - Wish You Were Here (Vocal)
TTITLE18=Ty Herndon - Hands Of A Working Man (Vocal)
TTITLE19=Sawyer Brown - Drive Me Wild (Vocal)
TTITLE20=Trisha Yearwood And Garth Brooks - Wild As The Wind (Karaoke Duet)
EXTD=
EXTT0=
EXTT1=
EXTT2=
EXTT3=
EXTT4=
EXTT5=
EXTT6=
EXTT7=
EXTT8=
EXTT9=
EXTT10=
EXTT11=
EXTT12=
EXTT13=
EXTT14=
EXTT15=
EXTT16=
EXTT17=
EXTT18=
EXTT19=
EXTT20=
PLAYORDER=
